<mxfile host="app.diagrams.net" modified="2023-09-22T04:58:33.808Z" agent="Mozilla/5.0 (Windows NT 10.0; Win64; x64) AppleWebKit/537.36 (KHTML, like Gecko) Chrome/116.0.0.0 Safari/537.36" etag="RT2lD358ZveH1mDRc0xD" version="21.3.2" type="github">
  <diagram id="6I0OCvxSQrVGMHxT2VVA" name="Page-1">
    <mxGraphModel dx="1434" dy="750" grid="1" gridSize="10" guides="1" tooltips="1" connect="1" arrows="1" fold="1" page="1" pageScale="1" pageWidth="850" pageHeight="1100" math="0" shadow="0">
      <root>
        <mxCell id="0" />
        <mxCell id="1" parent="0" />
        <mxCell id="n3dre4WTWMoriZG7flZN-80" style="edgeStyle=orthogonalEdgeStyle;rounded=0;orthogonalLoop=1;jettySize=auto;html=1;" edge="1" parent="1" source="dKdSaXE48SgPbhcamS2K-31" target="n3dre4WTWMoriZG7flZN-40">
          <mxGeometry relative="1" as="geometry">
            <mxPoint x="1351" y="700" as="targetPoint" />
            <Array as="points">
              <mxPoint x="1340" y="210" />
              <mxPoint x="1340" y="680" />
            </Array>
          </mxGeometry>
        </mxCell>
        <mxCell id="dKdSaXE48SgPbhcamS2K-31" value="" style="whiteSpace=wrap;html=1;strokeWidth=1;fontSize=14;fillColor=#f5f5f5;strokeColor=#666666;fontColor=#333333;" parent="1" vertex="1">
          <mxGeometry x="185" y="145" width="1075" height="130" as="geometry" />
        </mxCell>
        <mxCell id="n3dre4WTWMoriZG7flZN-111" value="" style="edgeStyle=orthogonalEdgeStyle;rounded=0;orthogonalLoop=1;jettySize=auto;html=1;" edge="1" parent="1" source="dKdSaXE48SgPbhcamS2K-32">
          <mxGeometry relative="1" as="geometry">
            <mxPoint x="340" y="370" as="targetPoint" />
          </mxGeometry>
        </mxCell>
        <mxCell id="n3dre4WTWMoriZG7flZN-115" style="edgeStyle=orthogonalEdgeStyle;rounded=0;orthogonalLoop=1;jettySize=auto;html=1;" edge="1" parent="1">
          <mxGeometry relative="1" as="geometry">
            <mxPoint x="1308" y="680" as="targetPoint" />
            <mxPoint x="1248" y="370" as="sourcePoint" />
            <Array as="points">
              <mxPoint x="1309" y="370" />
            </Array>
          </mxGeometry>
        </mxCell>
        <mxCell id="dKdSaXE48SgPbhcamS2K-32" value="" style="whiteSpace=wrap;html=1;strokeWidth=1;fontSize=14;fillColor=#eeeeee;strokeColor=#36393d;" parent="1" vertex="1">
          <mxGeometry x="360" y="300" width="900" height="140" as="geometry" />
        </mxCell>
        <mxCell id="n3dre4WTWMoriZG7flZN-55" value="" style="edgeStyle=orthogonalEdgeStyle;rounded=0;orthogonalLoop=1;jettySize=auto;html=1;" edge="1" parent="1" source="n3dre4WTWMoriZG7flZN-1" target="n3dre4WTWMoriZG7flZN-13">
          <mxGeometry relative="1" as="geometry" />
        </mxCell>
        <mxCell id="n3dre4WTWMoriZG7flZN-1" value="（选择）关联字段" style="rounded=1;whiteSpace=wrap;html=1;fillColor=#dae8fc;strokeColor=#6c8ebf;" vertex="1" parent="1">
          <mxGeometry x="870" y="351" width="140" height="60" as="geometry" />
        </mxCell>
        <mxCell id="n3dre4WTWMoriZG7flZN-2" value="标签注册发布" style="text;html=1;strokeColor=none;fillColor=none;align=center;verticalAlign=middle;whiteSpace=wrap;rounded=0;fontSize=15;" vertex="1" parent="1">
          <mxGeometry x="354" y="300" width="116" height="30" as="geometry" />
        </mxCell>
        <mxCell id="n3dre4WTWMoriZG7flZN-5" value="数据建模" style="text;html=1;strokeColor=none;fillColor=none;align=center;verticalAlign=middle;whiteSpace=wrap;rounded=0;fontSize=15;" vertex="1" parent="1">
          <mxGeometry x="194" y="145" width="76" height="30" as="geometry" />
        </mxCell>
        <mxCell id="n3dre4WTWMoriZG7flZN-8" value="标签类型" style="rounded=1;whiteSpace=wrap;html=1;fillColor=#dae8fc;strokeColor=#6c8ebf;" vertex="1" parent="1">
          <mxGeometry x="380" y="351" width="240" height="60" as="geometry" />
        </mxCell>
        <mxCell id="n3dre4WTWMoriZG7flZN-113" style="edgeStyle=orthogonalEdgeStyle;rounded=0;orthogonalLoop=1;jettySize=auto;html=1;" edge="1" parent="1" source="n3dre4WTWMoriZG7flZN-3" target="n3dre4WTWMoriZG7flZN-1">
          <mxGeometry relative="1" as="geometry" />
        </mxCell>
        <mxCell id="n3dre4WTWMoriZG7flZN-3" value="关联标签字段" style="rounded=1;whiteSpace=wrap;html=1;" vertex="1" parent="1">
          <mxGeometry x="870" y="185" width="140" height="60" as="geometry" />
        </mxCell>
        <mxCell id="n3dre4WTWMoriZG7flZN-9" value="新增：" style="text;html=1;strokeColor=none;fillColor=none;align=center;verticalAlign=middle;whiteSpace=wrap;rounded=0;" vertex="1" parent="1">
          <mxGeometry x="380" y="349" width="60" height="30" as="geometry" />
        </mxCell>
        <mxCell id="n3dre4WTWMoriZG7flZN-13" value="标签字段详情列表" style="rounded=1;whiteSpace=wrap;html=1;fillColor=#dae8fc;strokeColor=#6c8ebf;" vertex="1" parent="1">
          <mxGeometry x="1060" y="351" width="139.5" height="60" as="geometry" />
        </mxCell>
        <mxCell id="n3dre4WTWMoriZG7flZN-35" value="" style="edgeStyle=orthogonalEdgeStyle;rounded=0;orthogonalLoop=1;jettySize=auto;html=1;" edge="1" parent="1" source="n3dre4WTWMoriZG7flZN-15" target="n3dre4WTWMoriZG7flZN-32">
          <mxGeometry relative="1" as="geometry" />
        </mxCell>
        <mxCell id="n3dre4WTWMoriZG7flZN-15" value="" style="whiteSpace=wrap;html=1;strokeColor=#666666;strokeWidth=1;fillColor=#f5f5f5;fontSize=14;fontColor=#333333;" vertex="1" parent="1">
          <mxGeometry x="184" y="460" width="526" height="130" as="geometry" />
        </mxCell>
        <mxCell id="n3dre4WTWMoriZG7flZN-16" value="标签资产" style="text;html=1;strokeColor=none;fillColor=none;align=center;verticalAlign=middle;whiteSpace=wrap;rounded=0;fontSize=15;" vertex="1" parent="1">
          <mxGeometry x="170" y="460" width="100" height="30" as="geometry" />
        </mxCell>
        <mxCell id="n3dre4WTWMoriZG7flZN-17" value="展示标签类型" style="rounded=1;whiteSpace=wrap;html=1;fillColor=#dae8fc;strokeColor=#6c8ebf;" vertex="1" parent="1">
          <mxGeometry x="380" y="500" width="240" height="60" as="geometry" />
        </mxCell>
        <mxCell id="n3dre4WTWMoriZG7flZN-21" style="edgeStyle=orthogonalEdgeStyle;rounded=0;orthogonalLoop=1;jettySize=auto;html=1;verticalAlign=middle;" edge="1" parent="1" source="n3dre4WTWMoriZG7flZN-8" target="n3dre4WTWMoriZG7flZN-17">
          <mxGeometry relative="1" as="geometry" />
        </mxCell>
        <mxCell id="n3dre4WTWMoriZG7flZN-27" value="标签资产详情" style="text;html=1;strokeColor=none;fillColor=none;align=center;verticalAlign=middle;whiteSpace=wrap;rounded=0;fontSize=15;" vertex="1" parent="1">
          <mxGeometry x="750" y="460" width="100" height="30" as="geometry" />
        </mxCell>
        <mxCell id="n3dre4WTWMoriZG7flZN-32" value="" style="whiteSpace=wrap;html=1;strokeColor=#666666;strokeWidth=1;fillColor=#f5f5f5;fontSize=14;fontColor=#333333;" vertex="1" parent="1">
          <mxGeometry x="740" y="460" width="519" height="130" as="geometry" />
        </mxCell>
        <mxCell id="n3dre4WTWMoriZG7flZN-36" value="标签资产详情" style="text;html=1;strokeColor=none;fillColor=none;align=center;verticalAlign=middle;whiteSpace=wrap;rounded=0;fontSize=15;" vertex="1" parent="1">
          <mxGeometry x="722" y="460" width="138" height="30" as="geometry" />
        </mxCell>
        <mxCell id="n3dre4WTWMoriZG7flZN-38" value="关联字段详情列表" style="rounded=1;whiteSpace=wrap;html=1;fillColor=#dae8fc;strokeColor=#6c8ebf;" vertex="1" parent="1">
          <mxGeometry x="870" y="500" width="329.5" height="59" as="geometry" />
        </mxCell>
        <mxCell id="n3dre4WTWMoriZG7flZN-40" value="" style="whiteSpace=wrap;html=1;strokeWidth=1;fontSize=14;fillColor=#eeeeee;strokeColor=#36393d;" vertex="1" parent="1">
          <mxGeometry x="184" y="610" width="1075" height="140" as="geometry" />
        </mxCell>
        <mxCell id="n3dre4WTWMoriZG7flZN-41" value="数据查询" style="text;html=1;strokeColor=none;fillColor=none;align=center;verticalAlign=middle;whiteSpace=wrap;rounded=0;fontSize=15;" vertex="1" parent="1">
          <mxGeometry x="177" y="620" width="100" height="30" as="geometry" />
        </mxCell>
        <mxCell id="n3dre4WTWMoriZG7flZN-47" value="数据列表-表头&lt;br&gt;标签规则可筛选" style="rounded=1;whiteSpace=wrap;html=1;fillColor=#dae8fc;strokeColor=#6c8ebf;" vertex="1" parent="1">
          <mxGeometry x="380" y="650" width="600" height="60" as="geometry" />
        </mxCell>
        <mxCell id="n3dre4WTWMoriZG7flZN-56" value="优化2：" style="text;html=1;strokeColor=none;fillColor=none;align=center;verticalAlign=middle;whiteSpace=wrap;rounded=0;" vertex="1" parent="1">
          <mxGeometry x="1060" y="344" width="60" height="30" as="geometry" />
        </mxCell>
        <mxCell id="n3dre4WTWMoriZG7flZN-60" value="" style="edgeStyle=orthogonalEdgeStyle;rounded=0;orthogonalLoop=1;jettySize=auto;html=1;" edge="1" parent="1" source="n3dre4WTWMoriZG7flZN-57" target="n3dre4WTWMoriZG7flZN-3">
          <mxGeometry relative="1" as="geometry" />
        </mxCell>
        <mxCell id="n3dre4WTWMoriZG7flZN-57" value="标签规则" style="rounded=1;whiteSpace=wrap;html=1;" vertex="1" parent="1">
          <mxGeometry x="680" y="185" width="120" height="60" as="geometry" />
        </mxCell>
        <mxCell id="n3dre4WTWMoriZG7flZN-73" value="" style="edgeStyle=orthogonalEdgeStyle;rounded=0;orthogonalLoop=1;jettySize=auto;html=1;" edge="1" parent="1" source="n3dre4WTWMoriZG7flZN-72" target="n3dre4WTWMoriZG7flZN-57">
          <mxGeometry relative="1" as="geometry" />
        </mxCell>
        <mxCell id="n3dre4WTWMoriZG7flZN-72" value="新建表" style="rounded=1;whiteSpace=wrap;html=1;" vertex="1" parent="1">
          <mxGeometry x="470" y="185" width="110" height="60" as="geometry" />
        </mxCell>
        <mxCell id="n3dre4WTWMoriZG7flZN-74" value="..." style="text;html=1;strokeColor=none;fillColor=none;align=center;verticalAlign=middle;whiteSpace=wrap;rounded=0;strokeWidth=5;fontSize=25;" vertex="1" parent="1">
          <mxGeometry x="610" y="175" width="60" height="30" as="geometry" />
        </mxCell>
        <mxCell id="n3dre4WTWMoriZG7flZN-82" value="新增：" style="text;html=1;strokeColor=none;fillColor=none;align=center;verticalAlign=middle;whiteSpace=wrap;rounded=0;" vertex="1" parent="1">
          <mxGeometry x="380" y="495" width="60" height="30" as="geometry" />
        </mxCell>
        <mxCell id="n3dre4WTWMoriZG7flZN-83" value="优化：" style="text;html=1;strokeColor=none;fillColor=none;align=center;verticalAlign=middle;whiteSpace=wrap;rounded=0;" vertex="1" parent="1">
          <mxGeometry x="860" y="495" width="60" height="30" as="geometry" />
        </mxCell>
        <mxCell id="n3dre4WTWMoriZG7flZN-84" value="优化：" style="text;html=1;strokeColor=none;fillColor=none;align=center;verticalAlign=middle;whiteSpace=wrap;rounded=0;" vertex="1" parent="1">
          <mxGeometry x="375" y="650" width="65" height="30" as="geometry" />
        </mxCell>
        <mxCell id="n3dre4WTWMoriZG7flZN-88" value="" style="edgeStyle=orthogonalEdgeStyle;rounded=0;orthogonalLoop=1;jettySize=auto;html=1;" edge="1" parent="1" source="n3dre4WTWMoriZG7flZN-86" target="n3dre4WTWMoriZG7flZN-1">
          <mxGeometry relative="1" as="geometry" />
        </mxCell>
        <mxCell id="n3dre4WTWMoriZG7flZN-86" value="表" style="rounded=1;whiteSpace=wrap;html=1;" vertex="1" parent="1">
          <mxGeometry x="650" y="351" width="150" height="60" as="geometry" />
        </mxCell>
        <mxCell id="n3dre4WTWMoriZG7flZN-89" value="优化1：" style="text;html=1;strokeColor=none;fillColor=none;align=center;verticalAlign=middle;whiteSpace=wrap;rounded=0;" vertex="1" parent="1">
          <mxGeometry x="870" y="344" width="60" height="30" as="geometry" />
        </mxCell>
        <mxCell id="n3dre4WTWMoriZG7flZN-94" value="&lt;font style=&quot;font-size: 22px;&quot;&gt;优化点&lt;/font&gt;" style="text;html=1;strokeColor=none;fillColor=none;align=center;verticalAlign=middle;whiteSpace=wrap;rounded=0;" vertex="1" parent="1">
          <mxGeometry x="660" y="60" width="110" height="30" as="geometry" />
        </mxCell>
        <mxCell id="n3dre4WTWMoriZG7flZN-104" value="&#xa;&lt;span style=&quot;color: rgba(0, 0, 0, 0.85); font-family: &amp;quot;PingFang SC Medium&amp;quot;; font-size: 12px; font-style: normal; font-variant-ligatures: normal; font-variant-caps: normal; font-weight: 500; letter-spacing: normal; orphans: 2; text-align: start; text-indent: 0px; text-transform: none; widows: 2; word-spacing: 0px; -webkit-text-stroke-width: 0px; background-color: rgb(237, 241, 245); text-decoration-thickness: initial; text-decoration-style: initial; text-decoration-color: initial; float: none; display: inline !important;&quot;&gt;标签管理&lt;/span&gt;&#xa;&#xa;" style="whiteSpace=wrap;html=1;strokeWidth=1;fontSize=14;fillColor=#eeeeee;strokeColor=#36393d;" vertex="1" parent="1">
          <mxGeometry x="185" y="300" width="150" height="140" as="geometry" />
        </mxCell>
        <mxCell id="n3dre4WTWMoriZG7flZN-107" value="标签管理列表" style="text;html=1;strokeColor=none;fillColor=none;align=center;verticalAlign=middle;whiteSpace=wrap;rounded=0;fontSize=15;" vertex="1" parent="1">
          <mxGeometry x="185" y="300" width="110" height="30" as="geometry" />
        </mxCell>
        <mxCell id="n3dre4WTWMoriZG7flZN-105" value="展示标签类型" style="rounded=1;whiteSpace=wrap;html=1;fillColor=#dae8fc;strokeColor=#6c8ebf;" vertex="1" parent="1">
          <mxGeometry x="194" y="349" width="120" height="60" as="geometry" />
        </mxCell>
        <mxCell id="n3dre4WTWMoriZG7flZN-112" value="新增：" style="text;html=1;strokeColor=none;fillColor=none;align=center;verticalAlign=middle;whiteSpace=wrap;rounded=0;" vertex="1" parent="1">
          <mxGeometry x="185" y="344" width="60" height="30" as="geometry" />
        </mxCell>
        <mxCell id="n3dre4WTWMoriZG7flZN-114" style="edgeStyle=orthogonalEdgeStyle;rounded=0;orthogonalLoop=1;jettySize=auto;html=1;entryX=1;entryY=0.5;entryDx=0;entryDy=0;" edge="1" parent="1" source="n3dre4WTWMoriZG7flZN-13" target="n3dre4WTWMoriZG7flZN-38">
          <mxGeometry relative="1" as="geometry">
            <Array as="points">
              <mxPoint x="1220" y="381" />
              <mxPoint x="1220" y="530" />
            </Array>
          </mxGeometry>
        </mxCell>
        <mxCell id="n3dre4WTWMoriZG7flZN-116" value="" style="endArrow=classic;html=1;rounded=0;" edge="1" parent="1">
          <mxGeometry width="50" height="50" relative="1" as="geometry">
            <mxPoint x="1310" y="520" as="sourcePoint" />
            <mxPoint x="1260" y="520" as="targetPoint" />
          </mxGeometry>
        </mxCell>
        <mxCell id="n3dre4WTWMoriZG7flZN-118" style="edgeStyle=orthogonalEdgeStyle;rounded=0;orthogonalLoop=1;jettySize=auto;html=1;" edge="1" parent="1" source="dKdSaXE48SgPbhcamS2K-31" target="n3dre4WTWMoriZG7flZN-86">
          <mxGeometry relative="1" as="geometry">
            <Array as="points">
              <mxPoint x="723" y="340" />
              <mxPoint x="723" y="340" />
            </Array>
          </mxGeometry>
        </mxCell>
        <mxCell id="n3dre4WTWMoriZG7flZN-120" value="" style="whiteSpace=wrap;html=1;strokeWidth=1;fontSize=14;fillColor=#eeeeee;strokeColor=#36393d;" vertex="1" parent="1">
          <mxGeometry x="90" y="920" width="960" height="410" as="geometry" />
        </mxCell>
        <mxCell id="n3dre4WTWMoriZG7flZN-123" value="" style="edgeStyle=orthogonalEdgeStyle;rounded=0;orthogonalLoop=1;jettySize=auto;html=1;" edge="1" parent="1" source="n3dre4WTWMoriZG7flZN-121" target="n3dre4WTWMoriZG7flZN-122">
          <mxGeometry relative="1" as="geometry" />
        </mxCell>
        <mxCell id="n3dre4WTWMoriZG7flZN-121" value="分配服务master角色" style="rounded=1;whiteSpace=wrap;html=1;" vertex="1" parent="1">
          <mxGeometry x="215" y="980" width="120" height="60" as="geometry" />
        </mxCell>
        <mxCell id="n3dre4WTWMoriZG7flZN-125" value="" style="edgeStyle=orthogonalEdgeStyle;rounded=0;orthogonalLoop=1;jettySize=auto;html=1;" edge="1" parent="1" source="n3dre4WTWMoriZG7flZN-122" target="n3dre4WTWMoriZG7flZN-124">
          <mxGeometry relative="1" as="geometry" />
        </mxCell>
        <mxCell id="n3dre4WTWMoriZG7flZN-122" value="分配服务Worker与Client角色" style="whiteSpace=wrap;html=1;rounded=1;" vertex="1" parent="1">
          <mxGeometry x="415" y="980" width="120" height="60" as="geometry" />
        </mxCell>
        <mxCell id="n3dre4WTWMoriZG7flZN-129" value="" style="edgeStyle=orthogonalEdgeStyle;rounded=0;orthogonalLoop=1;jettySize=auto;html=1;" edge="1" parent="1" source="n3dre4WTWMoriZG7flZN-124" target="n3dre4WTWMoriZG7flZN-128">
          <mxGeometry relative="1" as="geometry" />
        </mxCell>
        <mxCell id="n3dre4WTWMoriZG7flZN-124" value="服务配置" style="whiteSpace=wrap;html=1;rounded=1;" vertex="1" parent="1">
          <mxGeometry x="615" y="980" width="120" height="60" as="geometry" />
        </mxCell>
        <mxCell id="n3dre4WTWMoriZG7flZN-128" value="安装并启动服务" style="whiteSpace=wrap;html=1;rounded=1;" vertex="1" parent="1">
          <mxGeometry x="815" y="980" width="120" height="60" as="geometry" />
        </mxCell>
        <mxCell id="n3dre4WTWMoriZG7flZN-132" value="" style="rounded=0;whiteSpace=wrap;html=1;" vertex="1" parent="1">
          <mxGeometry x="215" y="1090" width="725" height="200" as="geometry" />
        </mxCell>
        <mxCell id="n3dre4WTWMoriZG7flZN-135" value="" style="shape=flexArrow;endArrow=classic;html=1;rounded=0;entryX=0.076;entryY=0.01;entryDx=0;entryDy=0;entryPerimeter=0;" edge="1" parent="1" target="n3dre4WTWMoriZG7flZN-132">
          <mxGeometry width="50" height="50" relative="1" as="geometry">
            <mxPoint x="270" y="1040" as="sourcePoint" />
            <mxPoint x="320" y="990" as="targetPoint" />
          </mxGeometry>
        </mxCell>
        <mxCell id="n3dre4WTWMoriZG7flZN-137" value="&lt;font style=&quot;font-size: 15px;&quot;&gt;1. 根据接口展示不同配置内容&lt;br&gt;&lt;br&gt;2.不同组件下若此步骤步骤，跳过该步骤&lt;br&gt;&lt;br&gt;3.安装启动成功；安装启动失败，删除该服务重新安装启动&lt;br&gt;&lt;/font&gt;" style="text;html=1;strokeColor=none;fillColor=none;align=left;verticalAlign=middle;whiteSpace=wrap;rounded=0;" vertex="1" parent="1">
          <mxGeometry x="245" y="1110" width="635" height="140" as="geometry" />
        </mxCell>
        <mxCell id="n3dre4WTWMoriZG7flZN-138" value="" style="shape=flexArrow;endArrow=classic;html=1;rounded=0;entryX=0.076;entryY=0.01;entryDx=0;entryDy=0;entryPerimeter=0;" edge="1" parent="1">
          <mxGeometry width="50" height="50" relative="1" as="geometry">
            <mxPoint x="470" y="1040" as="sourcePoint" />
            <mxPoint x="469" y="1092" as="targetPoint" />
          </mxGeometry>
        </mxCell>
        <mxCell id="n3dre4WTWMoriZG7flZN-139" value="" style="shape=flexArrow;endArrow=classic;html=1;rounded=0;entryX=0.076;entryY=0.01;entryDx=0;entryDy=0;entryPerimeter=0;" edge="1" parent="1">
          <mxGeometry width="50" height="50" relative="1" as="geometry">
            <mxPoint x="675.5" y="1040" as="sourcePoint" />
            <mxPoint x="674.5" y="1092" as="targetPoint" />
          </mxGeometry>
        </mxCell>
        <mxCell id="n3dre4WTWMoriZG7flZN-140" value="" style="shape=flexArrow;endArrow=classic;html=1;rounded=0;entryX=0.076;entryY=0.01;entryDx=0;entryDy=0;entryPerimeter=0;" edge="1" parent="1">
          <mxGeometry width="50" height="50" relative="1" as="geometry">
            <mxPoint x="870" y="1041" as="sourcePoint" />
            <mxPoint x="870" y="1091" as="targetPoint" />
          </mxGeometry>
        </mxCell>
        <mxCell id="n3dre4WTWMoriZG7flZN-143" value="" style="whiteSpace=wrap;html=1;strokeWidth=1;fontSize=14;fillColor=#eeeeee;strokeColor=#36393d;" vertex="1" parent="1">
          <mxGeometry x="89.5" y="1360" width="960" height="410" as="geometry" />
        </mxCell>
        <mxCell id="n3dre4WTWMoriZG7flZN-144" value="服务总览" style="rounded=1;whiteSpace=wrap;html=1;" vertex="1" parent="1">
          <mxGeometry x="264.5" y="1420" width="120" height="60" as="geometry" />
        </mxCell>
        <mxCell id="n3dre4WTWMoriZG7flZN-145" value="参数配置" style="rounded=1;whiteSpace=wrap;html=1;" vertex="1" parent="1">
          <mxGeometry x="517" y="1420" width="120" height="60" as="geometry" />
        </mxCell>
        <mxCell id="n3dre4WTWMoriZG7flZN-146" value="指标监控" style="rounded=1;whiteSpace=wrap;html=1;" vertex="1" parent="1">
          <mxGeometry x="769.75" y="1420" width="120" height="60" as="geometry" />
        </mxCell>
        <mxCell id="n3dre4WTWMoriZG7flZN-147" value="组件部署" style="text;html=1;strokeColor=none;fillColor=none;align=center;verticalAlign=middle;whiteSpace=wrap;rounded=0;fontSize=20;" vertex="1" parent="1">
          <mxGeometry x="89.5" y="920" width="110" height="30" as="geometry" />
        </mxCell>
        <mxCell id="n3dre4WTWMoriZG7flZN-148" value="组件详情" style="text;html=1;strokeColor=none;fillColor=none;align=center;verticalAlign=middle;whiteSpace=wrap;rounded=0;fontSize=19;" vertex="1" parent="1">
          <mxGeometry x="90" y="1370" width="110" height="30" as="geometry" />
        </mxCell>
        <mxCell id="n3dre4WTWMoriZG7flZN-149" value="" style="rounded=0;whiteSpace=wrap;html=1;" vertex="1" parent="1">
          <mxGeometry x="215" y="1530" width="235" height="150" as="geometry" />
        </mxCell>
        <mxCell id="n3dre4WTWMoriZG7flZN-150" value="" style="shape=flexArrow;endArrow=classic;html=1;rounded=0;entryX=0.076;entryY=0.01;entryDx=0;entryDy=0;entryPerimeter=0;" edge="1" parent="1">
          <mxGeometry width="50" height="50" relative="1" as="geometry">
            <mxPoint x="323.90999999999997" y="1480" as="sourcePoint" />
            <mxPoint x="323.90999999999997" y="1532" as="targetPoint" />
          </mxGeometry>
        </mxCell>
        <mxCell id="n3dre4WTWMoriZG7flZN-152" value="" style="shape=flexArrow;endArrow=classic;html=1;rounded=0;entryX=0.076;entryY=0.01;entryDx=0;entryDy=0;entryPerimeter=0;" edge="1" parent="1">
          <mxGeometry width="50" height="50" relative="1" as="geometry">
            <mxPoint x="579.5" y="1480" as="sourcePoint" />
            <mxPoint x="579.5" y="1532" as="targetPoint" />
          </mxGeometry>
        </mxCell>
        <mxCell id="n3dre4WTWMoriZG7flZN-154" value="" style="rounded=0;whiteSpace=wrap;html=1;" vertex="1" parent="1">
          <mxGeometry x="720" y="1530" width="220" height="150" as="geometry" />
        </mxCell>
        <mxCell id="n3dre4WTWMoriZG7flZN-156" value="" style="shape=flexArrow;endArrow=classic;html=1;rounded=0;entryX=0.076;entryY=0.01;entryDx=0;entryDy=0;entryPerimeter=0;" edge="1" parent="1">
          <mxGeometry width="50" height="50" relative="1" as="geometry">
            <mxPoint x="829.41" y="1480" as="sourcePoint" />
            <mxPoint x="829.41" y="1532" as="targetPoint" />
          </mxGeometry>
        </mxCell>
        <mxCell id="n3dre4WTWMoriZG7flZN-158" value="&lt;font style=&quot;font-size: 15px;&quot;&gt;1. 只有HDFS、YARN才有指标监控&lt;br&gt;&lt;br&gt;2.不同组件展示不同页面&lt;br&gt;&lt;/font&gt;" style="text;html=1;strokeColor=none;fillColor=none;align=left;verticalAlign=middle;whiteSpace=wrap;rounded=0;" vertex="1" parent="1">
          <mxGeometry x="730" y="1540" width="199.5" height="120" as="geometry" />
        </mxCell>
        <mxCell id="n3dre4WTWMoriZG7flZN-159" value="" style="rounded=0;whiteSpace=wrap;html=1;" vertex="1" parent="1">
          <mxGeometry x="470" y="1530" width="230" height="150" as="geometry" />
        </mxCell>
        <mxCell id="n3dre4WTWMoriZG7flZN-161" value="同一前端页面根据接口展示不同内容" style="text;html=1;strokeColor=none;fillColor=none;align=center;verticalAlign=middle;whiteSpace=wrap;rounded=0;fontSize=17;" vertex="1" parent="1">
          <mxGeometry x="490" y="1550" width="180" height="100" as="geometry" />
        </mxCell>
        <mxCell id="n3dre4WTWMoriZG7flZN-165" value="同一前端页面根据接口展示不同内容" style="text;html=1;strokeColor=none;fillColor=none;align=center;verticalAlign=middle;whiteSpace=wrap;rounded=0;fontSize=17;" vertex="1" parent="1">
          <mxGeometry x="245" y="1555" width="180" height="100" as="geometry" />
        </mxCell>
      </root>
    </mxGraphModel>
  </diagram>
</mxfile>
